# xmcd
# 
# Track frame offsets:
#     150
#     31460
#     53024
#     74818
#     96571
#     115944
#     152966
#     170189
#     189065
#     215101
# 
# Disc length: 3254
# 
# Revision: 5
# Processed by: cddbd v1.5.2PL0 Copyright (c) Steve Scherf et al.
# Submitted via: fre:ac v1.0.31
# 
DISCID=990cb40a
DTITLE=Die Fantastischen Vier - MTV Unplugged 2 CD1
DYEAR=2012
DGENRE=Hip-Hop
TTITLE0=Fornika
TTITLE1=Ernten was wir säen
TTITLE2=Danke
TTITLE3=Dann mach doch mal
TTITLE4=Geboren
TTITLE5=Ichisichisichisich
TTITLE6=Smudo in Zukunft
TTITLE7=Mehr nehmen
TTITLE8=Pipis und Popos
TTITLE9=Mantra
EXTD=
EXTT0=
EXTT1=
EXTT2=
EXTT3=
EXTT4=
EXTT5=
EXTT6=
EXTT7=
EXTT8=
EXTT9=
PLAYORDER=
